<svg xmlns="http://www.w3.org/2000/svg" xmlns:xlink="http://www.w3.org/1999/xlink" viewBox="0 0 1171 1122"><defs><linearGradient id="a" x1="0.5" x2="0.5" y2="1" gradientUnits="objectBoundingBox"><stop offset="0" stop-color="#0bb76c"/><stop offset="1" stop-color="#61e999"/></linearGradient><clipPath id="b"><path d="M1090.6,636.775l189.569,104.973L1542.983,590.5l4.081-227.412-174.952-28.44L1098.291,525.595Z" fill="none"/></clipPath><linearGradient id="c" x1="0.5" y1="0.971" x2="0.5" y2="0.233" gradientUnits="objectBoundingBox"><stop offset="0" stop-color="#ef9884"/><stop offset="0.119" stop-color="#f2a18e"/><stop offset="0.398" stop-color="#f9b3a1"/><stop offset="0.688" stop-color="#fdbeac"/><stop offset="1" stop-color="#ffc2b0"/></linearGradient><linearGradient id="d" x1="0.296" y1="0.937" x2="0.822" y2="0.215" gradientUnits="objectBoundingBox"><stop offset="0" stop-color="#ffc2b0"/><stop offset="0.312" stop-color="#fdbeac"/><stop offset="0.602" stop-color="#f9b3a1"/><stop offset="0.881" stop-color="#f2a18e"/><stop offset="1" stop-color="#ef9884"/></linearGradient><linearGradient id="e" x1="0.055" y1="0.876" x2="0.676" y2="0.089" xlink:href="#d"/><linearGradient id="f" y1="0.5" x2="1" y2="0.5" gradientUnits="objectBoundingBox"><stop offset="0"/><stop offset="0.119"/><stop offset="0.398"/><stop offset="0.688"/><stop offset="1"/></linearGradient><linearGradient id="g" y1="0.5" x2="1" y2="0.5" gradientUnits="objectBoundingBox"><stop offset="0"/><stop offset="0.138" stop-color="#292929"/><stop offset="0.398" stop-color="#1d1d1d"/><stop offset="0.688" stop-color="#1a1a1a"/><stop offset="1"/></linearGradient><linearGradient id="h" y1="0.5" x2="1" y2="0.5" gradientUnits="objectBoundingBox"><stop offset="0" stop-color="#fff"/><stop offset="0.134" stop-color="#f3f3f3"/><stop offset="0.325" stop-color="#fcfcfc"/><stop offset="0.54" stop-color="#fff"/><stop offset="0.761" stop-color="#fff"/><stop offset="1" stop-color="#fff"/></linearGradient><linearGradient id="i" y1="0.5" x2="1" y2="0.5" gradientUnits="objectBoundingBox"><stop offset="0"/><stop offset="0.138"/><stop offset="0.398"/><stop offset="0.688"/><stop offset="1"/></linearGradient></defs><g transform="translate(5682.5 -751.5)"><path d="M1097.017,1451.5c-192.247-.932-410.185-58.181-672.7-125.862C109.937,1244.589,8.333,1117.742.5,951.706V907.621c3.077-70.5,20.046-147.436,42.822-230.335C80.252,542.872,124.956,427.646,198.711,329.5H1171.5V1448.849q-32,2.526-64.942,2.651Z" transform="translate(-5683 422)" fill="url(#a)"/><g transform="translate(-6431 751)"><g transform="translate(0.41 -57)" opacity="0.4"><path d="M1598,493.121l-62.693-36.194,62.691-36.2,62.693,36.2Zm-58.253-36.194L1598,490.558l58.252-33.631L1598,423.294Z" fill="#fff"/><path d="M1477.057,493.121l-62.693-36.2,62.691-36.194,62.693,36.2Zm-58.254-36.2,58.254,33.633,58.251-33.631-58.253-33.633Z" fill="#fff"/><path d="M1537.53,528.035l-62.693-36.2,62.691-36.194,62.693,36.194Zm-58.254-36.2,58.254,33.633,58.251-33.633-58.253-33.63Z" fill="#fff"/><path d="M1598,562.95l-62.693-36.2,62.691-36.2,62.693,36.2Zm-58.253-36.2L1598,560.386l58.251-33.632L1598,493.121Z" fill="#fff"/><path d="M1598,562.95l-62.693-36.2,62.691-36.2,62.693,36.2Zm-58.253-36.2L1598,560.386l58.251-33.632L1598,493.121Z" transform="translate(125)" fill="#fff"/><path d="M1356.112,493.119l-62.693-36.194,62.691-36.2,62.693,36.2Zm-58.253-36.194,58.253,33.631,58.252-33.631-58.254-33.633Z" fill="#fff"/><path d="M1416.585,528.034l-62.693-36.2,62.691-36.194,62.693,36.2Zm-58.253-36.2,58.253,33.633,58.252-33.631-58.254-33.632Z" fill="#fff"/><path d="M1477.059,562.948l-62.693-36.2,62.691-36.194,62.693,36.2Zm-58.254-36.2,58.254,33.633,58.251-33.631-58.253-33.633Z" fill="#fff"/><path d="M1537.532,597.863l-62.693-36.2,62.691-36.194,62.693,36.2Zm-58.254-36.2,58.254,33.633,58.251-33.631-58.253-33.633Z" fill="#fff"/><path d="M1598.005,632.777l-62.693-36.2,62.691-36.2,62.693,36.2Zm-58.254-36.2,58.254,33.633,58.251-33.633L1598,562.95Z" fill="#fff"/><path d="M1235.168,493.119l-62.693-36.2,62.691-36.194,62.693,36.2Zm-58.254-36.2,58.254,33.633,58.251-33.631-58.253-33.633Z" fill="#fff"/><path d="M1235.168,493.119l-62.693-36.2,62.691-36.194,62.693,36.2Zm-58.254-36.2,58.254,33.633,58.251-33.631-58.253-33.633Z" transform="translate(0 -72)" fill="#fff"/><path d="M1295.641,528.034l-62.693-36.2,62.691-36.194,62.693,36.194Zm-58.254-36.2,58.254,33.633,58.251-33.633-58.253-33.63Z" fill="#fff"/><path d="M1356.114,562.948l-62.693-36.2,62.691-36.2,62.693,36.2Zm-58.253-36.2,58.253,33.633,58.252-33.633-58.254-33.633Z" fill="#fff"/><path d="M1416.587,597.861l-62.693-36.2,62.691-36.2,62.693,36.2Zm-58.253-36.2,58.253,33.631,58.252-33.631-58.254-33.632Z" fill="#fff"/><path d="M1477.06,632.775l-62.693-36.2,62.692-36.194,62.692,36.2Zm-58.253-36.2,58.253,33.633,58.252-33.631-58.253-33.633Z" fill="#fff"/><path d="M1537.533,667.69l-62.692-36.2,62.691-36.194,62.693,36.2Zm-58.253-36.2,58.253,33.633,58.252-33.631-58.253-33.632Z" fill="#fff"/><path d="M1598.007,702.6l-62.693-36.2,62.691-36.194,62.693,36.2Zm-58.254-36.2,58.254,33.633,58.251-33.631-58.253-33.633Z" fill="#fff"/><path d="M1114.223,493.117l-62.693-36.2,62.691-36.194,62.693,36.2Zm-58.253-36.2,58.253,33.633,58.252-33.631-58.254-33.633Z" fill="#fff"/><path d="M1174.7,528.032,1112,491.835l62.691-36.194,62.693,36.2Zm-58.253-36.2,58.253,33.633,58.252-33.631L1174.694,458.2Z" fill="#fff"/><path d="M1235.17,562.946l-62.693-36.2,62.691-36.194,62.693,36.2Zm-58.254-36.2,58.254,33.633,58.251-33.631-58.253-33.633Z" fill="#fff"/><path d="M1295.643,597.861l-62.693-36.2,62.691-36.194,62.693,36.2Zm-58.254-36.2,58.254,33.633,58.251-33.631-58.253-33.632Z" fill="#fff"/><path d="M1356.116,632.775l-62.693-36.2,62.691-36.194,62.693,36.194Zm-58.253-36.2,58.253,33.633,58.251-33.633-58.253-33.631Z" fill="#fff"/><path d="M1416.589,667.69l-62.693-36.2,62.691-36.2,62.693,36.2Zm-58.253-36.2,58.253,33.633,58.252-33.633-58.254-33.632Z" fill="#fff"/><path d="M1477.062,702.6l-62.693-36.194,62.691-36.2,62.693,36.2Zm-58.253-36.194,58.253,33.631,58.252-33.631-58.254-33.633Z" fill="#fff"/><path d="M1537.535,737.516l-62.693-36.2,62.691-36.194,62.693,36.2Zm-58.253-36.2,58.253,33.633,58.252-33.631-58.254-33.632Z" fill="#fff"/><path d="M1598.009,772.431l-62.693-36.2,62.691-36.194,62.693,36.2Zm-58.254-36.2,58.254,33.632,58.251-33.63L1598.007,702.6Z" fill="#fff"/><path d="M1598.009,772.431l-62.693-36.2,62.691-36.194,62.693,36.2Zm-58.254-36.2,58.254,33.632,58.251-33.63L1598.007,702.6Z" transform="translate(125)" fill="#fff"/><path d="M993.279,493.117l-62.693-36.2,62.691-36.194,62.693,36.194Zm-58.254-36.2,58.254,33.633,58.251-33.633L993.277,423.29Z" fill="#fff"/><path d="M1053.752,528.032l-62.693-36.2,62.691-36.2,62.693,36.2Zm-58.253-36.2,58.253,33.633L1112,491.835,1053.75,458.2Z" fill="#fff"/><path d="M1114.225,562.944l-62.693-36.194,62.691-36.2,62.693,36.2Zm-58.253-36.194,58.253,33.631,58.252-33.631-58.254-33.633Z" fill="#fff"/><path d="M1174.7,597.859l-62.693-36.2,62.691-36.2,62.693,36.2Zm-58.253-36.2,58.253,33.632,58.252-33.631L1174.7,528.032Z" fill="#fff"/><path d="M1235.172,632.773l-62.693-36.2,62.691-36.194,62.693,36.2Zm-58.254-36.2,58.254,33.633,58.251-33.631-58.253-33.633Z" fill="#fff"/><path d="M1295.645,667.688l-62.693-36.2,62.691-36.194,62.693,36.2Zm-58.254-36.2,58.254,33.633,58.251-33.631-58.253-33.632Z" fill="#fff"/><path d="M1356.118,702.6l-62.693-36.2,62.691-36.194,62.693,36.2Zm-58.253-36.2,58.253,33.633,58.251-33.631-58.253-33.633Z" fill="#fff"/><path d="M1416.591,737.516l-62.693-36.2,62.691-36.194,62.693,36.194Zm-58.253-36.2,58.253,33.633,58.251-33.633-58.253-33.63Z" fill="#fff"/><path d="M1477.064,772.431l-62.693-36.2,62.691-36.2,62.693,36.2Zm-58.253-36.2,58.253,33.632,58.252-33.632L1477.062,702.6Z" fill="#fff"/><path d="M1537.537,807.344l-62.693-36.2,62.691-36.2,62.693,36.2Zm-58.253-36.2,58.253,33.631,58.252-33.631-58.254-33.633Z" fill="#fff"/><path d="M1598.011,842.258l-62.693-36.2,62.691-36.2,62.693,36.2Zm-58.254-36.2,58.254,33.633,58.251-33.631-58.253-33.633Z" fill="#fff"/><path d="M993.281,562.944l-62.693-36.2,62.691-36.194,62.693,36.2Zm-58.254-36.2,58.254,33.633,58.251-33.631-58.253-33.633Z" fill="#fff"/><path d="M1053.754,597.859l-62.693-36.2,62.691-36.2,62.693,36.2Zm-58.254-36.2,58.254,33.632,58.251-33.632-58.253-33.631Z" fill="#fff"/><path d="M1114.227,632.773l-62.693-36.2,62.691-36.2,62.693,36.2Zm-58.253-36.2,58.253,33.633,58.252-33.633-58.254-33.633Z" fill="#fff"/><path d="M1174.7,667.686l-62.693-36.195,62.691-36.2,62.693,36.2Zm-58.253-36.195,58.253,33.631,58.252-33.631L1174.7,597.859Z" fill="#fff"/><path d="M1235.173,702.6l-62.692-36.2,62.691-36.194,62.693,36.2Zm-58.253-36.2,58.253,33.633,58.252-33.631-58.253-33.633Z" fill="#fff"/><path d="M1295.646,737.514l-62.692-36.2,62.691-36.194,62.693,36.2Zm-58.253-36.2,58.253,33.633L1353.9,701.32l-58.253-33.632Z" fill="#fff"/><path d="M1356.12,772.429l-62.693-36.2,62.691-36.194,62.693,36.2Zm-58.254-36.2,58.254,33.632,58.251-33.63L1356.118,702.6Z" fill="#fff"/><path d="M1416.593,807.344l-62.693-36.2,62.691-36.194,62.693,36.2Zm-58.254-36.2,58.254,33.633,58.251-33.631-58.253-33.633Z" fill="#fff"/><path d="M1477.066,842.258l-62.693-36.2,62.691-36.2,62.693,36.2Zm-58.253-36.2,58.253,33.633,58.252-33.633-58.254-33.631Z" fill="#fff"/><path d="M1537.539,877.172l-62.693-36.2,62.691-36.2,62.693,36.2Zm-58.253-36.2,58.253,33.633,58.252-33.633-58.254-33.632Z" fill="#fff"/><path d="M1598.012,912.085l-62.692-36.194,62.691-36.2,62.693,36.2Zm-58.253-36.194,58.253,33.63,58.252-33.63-58.253-33.633Z" fill="#fff"/><path d="M993.283,632.771l-62.693-36.2,62.691-36.194,62.693,36.2Zm-58.254-36.2,58.254,33.633,58.251-33.631-58.253-33.633Z" fill="#fff"/><path d="M993.283,632.771l-62.693-36.2,62.691-36.194,62.693,36.2Zm-58.254-36.2,58.254,33.633,58.251-33.631-58.253-33.633Z" transform="translate(-125)" fill="#fff"/><path d="M1053.756,667.686l-62.693-36.2,62.691-36.2,62.693,36.2ZM995.5,631.49l58.254,33.632,58.251-33.631-58.253-33.632Z" fill="#fff"/><path d="M1114.229,702.6l-62.693-36.2,62.691-36.194L1176.92,666.4Zm-58.253-36.2,58.253,33.633,58.252-33.633-58.254-33.631Z" fill="#fff"/><path d="M1174.7,737.514l-62.693-36.2,62.691-36.2,62.693,36.2Zm-58.253-36.2,58.253,33.633,58.252-33.633L1174.7,667.686Z" fill="#fff"/><path d="M1235.175,772.427l-62.693-36.194,62.691-36.2,62.693,36.2Zm-58.253-36.194,58.253,33.631,58.252-33.631L1235.173,702.6Z" fill="#fff"/><path d="M1295.648,807.342l-62.693-36.2,62.691-36.194,62.693,36.2Zm-58.253-36.2,58.253,33.633,58.252-33.631-58.254-33.633Z" fill="#fff"/><path d="M1356.122,842.256l-62.693-36.2,62.691-36.2,62.693,36.2Zm-58.254-36.2,58.254,33.633,58.251-33.631-58.253-33.633Z" fill="#fff"/><path d="M1416.595,877.17l-62.693-36.2,62.691-36.194,62.693,36.2Zm-58.254-36.2,58.254,33.633,58.251-33.631-58.253-33.632Z" fill="#fff"/><path d="M1477.068,912.085l-62.693-36.2,62.691-36.194,62.693,36.2Zm-58.253-36.2,58.253,33.632,58.252-33.63-58.254-33.633Z" fill="#fff"/><path d="M993.285,702.6l-62.693-36.2,62.691-36.194,62.693,36.2Zm-58.254-36.2,58.254,33.633,58.251-33.631-58.253-33.633Z" fill="#fff"/><path d="M1053.758,737.513l-62.693-36.2,62.691-36.194,62.693,36.2Zm-58.254-36.2,58.254,33.633,58.251-33.631-58.253-33.632Z" fill="#fff"/><path d="M1114.231,772.427l-62.693-36.2,62.691-36.194,62.693,36.2Zm-58.254-36.2,58.254,33.633,58.251-33.631L1114.229,702.6Z" fill="#fff"/><path d="M1174.7,807.342l-62.693-36.2,62.691-36.194,62.693,36.194Zm-58.253-36.2,58.253,33.633,58.251-33.633L1174.7,737.514Z" fill="#fff"/><path d="M1235.177,842.256l-62.693-36.2,62.691-36.2,62.693,36.2Zm-58.253-36.2,58.253,33.633,58.252-33.633-58.254-33.633Z" fill="#fff"/><path d="M1295.65,877.169l-62.693-36.2,62.691-36.2,62.693,36.2Zm-58.253-36.2L1295.65,874.6l58.252-33.631-58.254-33.632Z" fill="#fff"/><path d="M1356.124,912.083l-62.693-36.2,62.691-36.194,62.693,36.2Zm-58.254-36.2,58.254,33.633,58.251-33.631-58.253-33.633Z" fill="#fff"/><path d="M1356.124,912.083l-62.693-36.2,62.691-36.194,62.693,36.2Zm-58.254-36.2,58.254,33.633,58.251-33.631-58.253-33.633Z" transform="translate(-2 72)" fill="#fff"/><path d="M993.286,772.425l-62.693-36.194,62.692-36.2,62.692,36.2Zm-58.253-36.194,58.253,33.631,58.252-33.631L993.285,702.6Z" fill="#fff"/><path d="M1053.76,807.34l-62.693-36.2,62.691-36.2,62.693,36.2Zm-58.254-36.2,58.254,33.632,58.251-33.631-58.253-33.632Z" fill="#fff"/><path d="M1114.233,842.254l-62.693-36.2,62.691-36.194,62.693,36.2Zm-58.254-36.2,58.254,33.633,58.251-33.631-58.253-33.633Z" fill="#fff"/><path d="M1174.706,877.169l-62.693-36.2,62.691-36.194,62.693,36.2Zm-58.253-36.2,58.253,33.633,58.251-33.631L1174.7,807.342Z" fill="#fff"/><path d="M1235.179,912.083l-62.693-36.2,62.691-36.194,62.693,36.194Zm-58.253-36.2,58.253,33.633,58.252-33.633-58.254-33.631Z" fill="#fff"/><path d="M993.288,842.254l-62.693-36.2,62.691-36.2,62.693,36.2Zm-58.253-36.2,58.253,33.633,58.252-33.633-58.254-33.633Z" fill="#fff"/><path d="M1053.761,877.167l-62.692-36.2,62.691-36.2,62.693,36.2Zm-58.253-36.2,58.253,33.631,58.252-33.631L1053.76,807.34Z" fill="#fff"/><path d="M1114.235,912.081l-62.693-36.2,62.691-36.194,62.693,36.2Zm-58.254-36.2,58.254,33.633,58.251-33.631-58.253-33.633Z" fill="#fff"/><path d="M993.29,912.081l-62.693-36.2,62.691-36.194,62.693,36.194Zm-58.253-36.2,58.253,33.633,58.252-33.633-58.254-33.631Z" fill="#fff"/></g><g transform="translate(28.41 -48)" opacity="0.3"><path d="M1264.285,686.393c-9.444,5.453-9.443,14.325,0,19.778l160.533,92.684a10.4,10.4,0,0,0,9.4,0c2.6-1.5,2.6-3.931,0-5.43l-160.533-92.683c-4.26-2.459-4.26-6.46,0-8.919l15.556-8.981c-1.729-2.6-3.3-5.307-4.832-8.069Z" fill="#fff"/><path d="M1491.649,760.27l-160.533-92.684c-9.444-5.452-24.811-5.453-34.255,0l-12.448,7.187c1.534,2.762,3.1,5.468,4.832,8.069l17.019-9.827a17.1,17.1,0,0,1,15.449,0L1482.246,765.7a10.393,10.393,0,0,0,9.4,0C1494.245,764.2,1494.245,761.769,1491.649,760.27Z" fill="#fff"/><path d="M1493.58,763.177l.016-225.735-168.23-93.782-23.526-1.551-22.75,14.736L1265.129,469l163.908,259.923,53.516,31.541Z" fill="#fff"/><path d="M1431.364,791.686l50.284-29.03V544.494l-51.835,24.095Z" fill="#f7f7f7"/><path d="M1257.207,470.744V696.111l176.6,101.017,2.356-.943v-225.7Z" fill="#fff"/><path d="M1356.535,472.608l-35.1-20.166c-4.286-1.984-10.553-1.858-14.526.435l-32.576,18.807c-2.523,1.458-3.539,3.455-3.073,5.353l88.691,53,71.24,43.727,50.455-29.268Z" fill="#fff"/><path d="M1429.813,566.943v233.02a9.472,9.472,0,0,0,4.409-1.108,3.322,3.322,0,0,0,1.939-2.666l.007-.005v-225.7Z" fill="#fff"/><path d="M1493.6,540.257v-2.815h-.9l-.274,1.911Z" fill="#fff"/><path d="M1436.164,573.411v-2.884l-.867,1.224Z" fill="#fff"/><path d="M1424.819,573.158l-160.533-92.684c-9.444-5.452-9.445-14.324,0-19.777l32.576-18.807c9.444-5.453,24.811-5.453,34.255,0l160.533,92.684c2.6,1.5,2.6,3.93,0,5.429a10.393,10.393,0,0,1-9.4,0l-160.533-92.684a17.1,17.1,0,0,0-15.449,0l-32.575,18.807c-4.26,2.459-4.26,6.46,0,8.919l160.533,92.684c2.6,1.5,2.6,3.93,0,5.429A10.393,10.393,0,0,1,1424.819,573.158Z" fill="#d4ecff"/><path d="M1382.982,680.005l-83.42-48.163V548.215l83.42,48.163Z" fill="#fff"/><path d="M1491.649,540a10.393,10.393,0,0,1-9.4,0l-160.533-92.684a17.1,17.1,0,0,0-15.449,0l-32.575,18.807c-2.789,1.61-3.739,3.88-2.876,5.946a6.474,6.474,0,0,1,2.876-2.973l32.575-18.807a17.1,17.1,0,0,1,15.449,0l160.533,92.684a10.393,10.393,0,0,0,9.4,0c1.968-1.136,2.437-2.806,1.422-4.2A4.518,4.518,0,0,1,1491.649,540Z" fill="#fff"/><path d="M1434.222,573.158a10.393,10.393,0,0,1-9.4,0l-160.533-92.684c-4.068-2.348-6.373-5.331-6.937-8.4-.745,4.059,1.56,8.271,6.937,11.375l160.533,92.684a10.393,10.393,0,0,0,9.4,0c1.968-1.136,2.437-2.8,1.422-4.2A4.519,4.519,0,0,1,1434.222,573.158Z" fill="#fff"/><path d="M1190.481,730.088c-9.444,5.453-9.443,14.325,0,19.778l160.533,92.684a10.392,10.392,0,0,0,9.4,0c2.6-1.5,2.6-3.931,0-5.43l-160.533-92.683c-4.26-2.46-4.26-6.46,0-8.92l15.556-8.981c-1.729-2.6-3.3-5.306-4.833-8.068Z" fill="#fff"/><path d="M1417.845,803.965l-160.533-92.684c-9.444-5.452-24.811-5.453-34.255,0l-12.449,7.187c1.535,2.762,3.1,5.468,4.833,8.068l17.019-9.826a17.1,17.1,0,0,1,15.449,0l160.533,92.684a10.392,10.392,0,0,0,9.4,0C1420.441,807.9,1420.441,805.464,1417.845,803.965Z" fill="#fff"/><path d="M1419.776,806.872l.016-225.735-168.23-93.782-23.526-1.551-22.751,14.736-13.96,12.151,163.908,259.923,53.516,31.541Z" fill="#fff"/><path d="M1357.56,835.381l50.284-29.03V588.189l-51.835,24.095Z" fill="#f7f7f7"/><path d="M1183.4,514.439V739.806l176.6,101.017,2.356-.944v-225.7Z" fill="#fff"/><path d="M1282.731,516.3l-35.1-20.166c-4.286-1.984-10.554-1.858-14.526.435l-32.576,18.807c-2.524,1.458-3.539,3.455-3.073,5.353l88.69,53,71.24,43.727,50.456-29.268Z" fill="#fff"/><path d="M1356.008,610.638v233.02a9.472,9.472,0,0,0,4.41-1.108,3.322,3.322,0,0,0,1.939-2.666l.007,0v-225.7Z" fill="#fcfbfb"/><path d="M1419.792,583.952v-2.815h-.9l-.274,1.912Z" fill="#fff"/><path d="M1362.36,617.106v-2.884l-.867,1.224Z" fill="#fff"/><path d="M1351.015,616.853l-160.533-92.684c-9.444-5.452-9.445-14.325,0-19.777l32.576-18.807c9.444-5.453,24.811-5.453,34.255,0l160.533,92.684c2.6,1.5,2.6,3.93,0,5.429a10.392,10.392,0,0,1-9.4,0l-160.533-92.684a17.093,17.093,0,0,0-15.449,0l-32.575,18.807c-4.26,2.459-4.26,6.46,0,8.919l160.533,92.684c2.6,1.5,2.6,3.93,0,5.429A10.393,10.393,0,0,1,1351.015,616.853Z" fill="#ff2c9c"/><path d="M1309.178,723.7l-83.42-48.163V591.91l83.42,48.163Z" fill="#fff"/><path d="M1417.845,583.7a10.392,10.392,0,0,1-9.4,0l-160.533-92.684a17.093,17.093,0,0,0-15.449,0l-32.575,18.807c-2.789,1.61-3.739,3.88-2.876,5.946a6.468,6.468,0,0,1,2.876-2.973l32.575-18.807a17.1,17.1,0,0,1,15.449,0l160.533,92.684a10.393,10.393,0,0,0,9.4,0c1.967-1.136,2.437-2.806,1.422-4.2A4.514,4.514,0,0,1,1417.845,583.7Z" fill="#fff"/><path d="M1360.418,616.853a10.393,10.393,0,0,1-9.4,0l-160.533-92.684c-4.068-2.348-6.373-5.331-6.937-8.4-.745,4.059,1.56,8.271,6.937,11.375l160.533,92.684a10.392,10.392,0,0,0,9.4,0c1.968-1.136,2.437-2.8,1.422-4.2A4.516,4.516,0,0,1,1360.418,616.853Z" fill="#fff"/><g transform="translate(0 -3)"><path d="M1114.643,803.273c-9.443,5.453-9.443,14.325,0,19.778l160.533,92.684a10.4,10.4,0,0,0,9.4,0c2.6-1.5,2.6-3.931,0-5.43l-160.533-92.683c-4.259-2.46-4.26-6.46,0-8.92l15.556-8.981c-1.729-2.6-3.3-5.306-4.832-8.068Z" fill="#fff"/><path d="M1342.007,877.15l-160.533-92.684c-9.444-5.452-24.811-5.453-34.255,0l-12.448,7.187c1.534,2.762,3.1,5.468,4.832,8.068l17.02-9.826a17.1,17.1,0,0,1,15.448,0L1332.6,882.579a10.392,10.392,0,0,0,9.4,0C1344.6,881.08,1344.6,878.649,1342.007,877.15Z" fill="#fff"/><path d="M1343.939,880.057l.016-225.735-168.23-93.782-23.526-1.551-22.751,14.736-13.961,12.151L1279.4,845.8l53.516,31.541Z" fill="#fff"/><path d="M1281.722,908.566l50.284-29.03V661.374l-51.835,24.095Z" fill="#f7f7f7"/><path d="M1107.565,587.624V812.99l176.6,101.017,2.356-.943v-225.7Z" fill="#fff"/><path d="M1206.893,589.488l-35.1-20.166c-4.286-1.984-10.554-1.859-14.526.435l-32.576,18.807c-2.523,1.457-3.539,3.455-3.072,5.353l88.69,53,71.24,43.727,50.455-29.268Z" fill="#fff"/><path d="M1280.171,683.823V916.842a9.447,9.447,0,0,0,4.409-1.108,3.32,3.32,0,0,0,1.939-2.665l.007,0v-225.7Z" fill="#fff"/><path d="M1343.954,657.137v-2.815h-.9l-.274,1.911Z" fill="#fff"/><path d="M1286.522,690.291v-2.884l-.867,1.224Z" fill="#fff"/><path d="M1275.177,690.038l-160.533-92.684c-9.444-5.452-9.444-14.325,0-19.777l32.575-18.808c9.444-5.452,24.811-5.452,34.255,0l160.533,92.683c2.6,1.5,2.6,3.931,0,5.43a10.4,10.4,0,0,1-9.4,0L1172.071,564.2a17.091,17.091,0,0,0-15.448,0l-32.576,18.807c-4.26,2.459-4.259,6.46,0,8.919l160.533,92.684c2.6,1.5,2.6,3.93,0,5.429A10.393,10.393,0,0,1,1275.177,690.038Z" fill="#d4ecff"/><path d="M1233.34,796.885l-83.42-48.163V665.1l83.42,48.163Z" fill="#fff"/><path d="M1342.007,656.882a10.393,10.393,0,0,1-9.4,0L1172.071,564.2a17.091,17.091,0,0,0-15.448,0l-32.576,18.807c-2.789,1.61-3.739,3.88-2.876,5.946a6.474,6.474,0,0,1,2.876-2.973l32.576-18.807a17.1,17.1,0,0,1,15.448,0L1332.6,659.856a10.393,10.393,0,0,0,9.4,0c1.968-1.137,2.437-2.806,1.423-4.2A4.531,4.531,0,0,1,1342.007,656.882Z" fill="#fff"/><path d="M1284.58,690.038a10.393,10.393,0,0,1-9.4,0l-160.533-92.684c-4.068-2.348-6.373-5.332-6.936-8.4-.746,4.059,1.559,8.271,6.936,11.375l160.533,92.684a10.392,10.392,0,0,0,9.4,0c1.968-1.136,2.437-2.8,1.422-4.2A4.516,4.516,0,0,1,1284.58,690.038Z" fill="#fff"/></g><path d="M1107.565,646.168l172.606,95.58,228.073-131.255,98.955,41.472-71.318,247.344-347.839,59.364-143.807-151.5Z" fill="none"/></g><g transform="translate(28.41 -48)" clip-path="url(#b)"><path d="M1264.285,638.03c-9.444,5.453-9.443,14.325,0,19.778l160.533,92.684a10.393,10.393,0,0,0,9.4,0c2.6-1.5,2.6-3.93,0-5.429l-160.533-92.684c-4.26-2.459-4.26-6.46,0-8.919l15.556-8.981c-1.729-2.6-3.3-5.307-4.832-8.069Z" fill="#d4ecff"/><path d="M1491.649,711.907l-160.533-92.683c-9.444-5.453-24.811-5.453-34.255,0l-12.448,7.187c1.534,2.762,3.1,5.468,4.832,8.069l17.019-9.827a17.1,17.1,0,0,1,15.449,0l160.533,92.684a10.393,10.393,0,0,0,9.4,0C1494.245,715.838,1494.245,713.406,1491.649,711.907Z" fill="#5793ce"/><path d="M1493.58,714.814l.016-225.735L1325.366,395.3l-23.526-1.551-22.75,14.736-13.961,12.151,163.908,259.923,53.516,31.541Z" fill="#fff"/><path d="M1431.364,743.323l50.284-29.03V496.131l-51.835,24.095Z" fill="#f7f7f7"/><path d="M1257.207,422.381V647.748l176.6,101.017,2.356-.944v-225.7Z" fill="#fff"/><path d="M1356.535,424.246l-35.1-20.167c-4.286-1.984-10.553-1.858-14.526.435l-32.576,18.807c-2.523,1.458-3.539,3.455-3.073,5.353l88.691,53,71.24,43.727,50.455-29.268Z" fill="#f3f3f3"/><path d="M1429.813,518.58V751.6a9.471,9.471,0,0,0,4.409-1.108,3.322,3.322,0,0,0,1.939-2.666l.007-.005v-225.7Z" fill="#fff"/><path d="M1493.6,491.894v-2.815h-.9l-.274,1.911Z" fill="#fff"/><path d="M1436.164,525.048v-2.884l-.867,1.224Z" fill="#fff"/><path d="M1424.819,524.795l-160.533-92.684c-9.444-5.452-9.445-14.324,0-19.777l32.576-18.807c9.444-5.453,24.811-5.453,34.255,0l160.533,92.684c2.6,1.5,2.6,3.93,0,5.429a10.393,10.393,0,0,1-9.4,0l-160.533-92.684a17.1,17.1,0,0,0-15.449,0l-32.575,18.807c-4.26,2.46-4.26,6.46,0,8.92l160.533,92.683c2.6,1.5,2.6,3.931,0,5.429A10.393,10.393,0,0,1,1424.819,524.795Z" fill="#fcfbfb"/><path d="M1382.982,631.642l-83.42-48.163V499.853l83.42,48.163Z" fill="#fff"/><path d="M1491.649,491.64a10.393,10.393,0,0,1-9.4,0l-160.533-92.684a17.1,17.1,0,0,0-15.449,0l-32.575,18.807c-2.789,1.61-3.739,3.88-2.876,5.946a6.463,6.463,0,0,1,2.876-2.972l32.575-18.808a17.1,17.1,0,0,1,15.449,0l160.533,92.684a10.393,10.393,0,0,0,9.4,0c1.968-1.136,2.437-2.806,1.422-4.2A4.518,4.518,0,0,1,1491.649,491.64Z" fill="#fff"/><path d="M1434.222,524.795a10.393,10.393,0,0,1-9.4,0l-160.533-92.684c-4.068-2.348-6.373-5.331-6.937-8.4-.745,4.059,1.56,8.271,6.937,11.376l160.533,92.683a10.393,10.393,0,0,0,9.4,0c1.968-1.135,2.437-2.8,1.422-4.2A4.518,4.518,0,0,1,1434.222,524.795Z" fill="#fff"/><path d="M1190.481,730.088c-9.444,5.453-9.443,14.325,0,19.778l160.533,92.684a10.392,10.392,0,0,0,9.4,0c2.6-1.5,2.6-3.931,0-5.43l-160.533-92.683c-4.26-2.46-4.26-6.46,0-8.92l15.556-8.981c-1.729-2.6-3.3-5.306-4.833-8.068Z" fill="#ff2c9c"/><path d="M1417.845,803.965l-160.533-92.684c-9.444-5.452-24.811-5.453-34.255,0l-12.449,7.187c1.535,2.762,3.1,5.468,4.833,8.068l17.019-9.826a17.1,17.1,0,0,1,15.449,0l160.533,92.684a10.392,10.392,0,0,0,9.4,0C1420.441,807.9,1420.441,805.464,1417.845,803.965Z" fill="#d3008d"/><path d="M1419.776,806.872l.016-225.735-168.23-93.782-23.526-1.551-22.751,14.736-13.96,12.151,163.908,259.923,53.516,31.541Z" fill="#fff"/><path d="M1357.56,835.381l50.284-29.03V588.189l-51.835,24.095Z" fill="#f7f7f7"/><path d="M1183.4,514.439V739.806l176.6,101.017,2.356-.944v-225.7Z" fill="#fff"/><path d="M1282.731,516.3l-35.1-20.166c-4.286-1.984-10.554-1.858-14.526.435l-32.576,18.807c-2.524,1.458-3.539,3.455-3.073,5.353l88.69,53,71.24,43.727,50.456-29.268Z" fill="#f3f3f3"/><path d="M1356.008,610.638v233.02a9.472,9.472,0,0,0,4.41-1.108,3.322,3.322,0,0,0,1.939-2.666l.007,0v-225.7Z" fill="#fff"/><path d="M1419.792,583.952v-2.815h-.9l-.274,1.912Z" fill="#fff"/><path d="M1362.36,617.106v-2.884l-.867,1.224Z" fill="#fff"/><path d="M1351.015,616.853l-160.533-92.684c-9.444-5.452-9.445-14.325,0-19.777l32.576-18.807c9.444-5.453,24.811-5.453,34.255,0l160.533,92.684c2.6,1.5,2.6,3.93,0,5.429a10.392,10.392,0,0,1-9.4,0l-160.533-92.684a17.093,17.093,0,0,0-15.449,0l-32.575,18.807c-4.26,2.459-4.26,6.46,0,8.919l160.533,92.684c2.6,1.5,2.6,3.93,0,5.429A10.393,10.393,0,0,1,1351.015,616.853Z" fill="#fcfbfb"/><path d="M1309.178,723.7l-83.42-48.163V591.91l83.42,48.163Z" fill="#fff"/><path d="M1417.845,583.7a10.392,10.392,0,0,1-9.4,0l-160.533-92.684a17.093,17.093,0,0,0-15.449,0l-32.575,18.807c-2.789,1.61-3.739,3.88-2.876,5.946a6.468,6.468,0,0,1,2.876-2.973l32.575-18.807a17.1,17.1,0,0,1,15.449,0l160.533,92.684a10.393,10.393,0,0,0,9.4,0c1.967-1.136,2.437-2.806,1.422-4.2A4.514,4.514,0,0,1,1417.845,583.7Z" fill="#fff"/><path d="M1360.418,616.853a10.393,10.393,0,0,1-9.4,0l-160.533-92.684c-4.068-2.348-6.373-5.331-6.937-8.4-.745,4.059,1.56,8.271,6.937,11.375l160.533,92.684a10.392,10.392,0,0,0,9.4,0c1.968-1.136,2.437-2.8,1.422-4.2A4.516,4.516,0,0,1,1360.418,616.853Z" fill="#fff"/><path d="M1114.643,799.58c-9.443,5.452-9.443,14.325,0,19.777l160.533,92.684a10.393,10.393,0,0,0,9.4,0c2.6-1.5,2.6-3.93,0-5.429l-160.533-92.684c-4.259-2.459-4.26-6.46,0-8.919l15.556-8.981c-1.729-2.6-3.3-5.306-4.832-8.068Z" fill="#d4ecff"/><path d="M1342.007,873.457l-160.533-92.684c-9.444-5.453-24.811-5.453-34.255,0l-12.448,7.188c1.534,2.762,3.1,5.467,4.832,8.068l17.02-9.826a17.09,17.09,0,0,1,15.448,0L1332.6,878.885a10.393,10.393,0,0,0,9.4,0C1344.6,877.387,1344.6,874.956,1342.007,873.457Z" fill="#5793ce"/><path d="M1343.939,876.364l.016-225.735-168.23-93.782L1152.2,555.3l-22.751,14.736-13.961,12.151L1279.4,842.106l53.516,31.541Z" fill="#fff"/><path d="M1281.722,904.873l50.284-29.03V657.68l-51.835,24.095Z" fill="#f7f7f7"/><path d="M1107.565,583.93V809.3l176.6,101.017,2.356-.944v-225.7Z" fill="#fff"/><path d="M1206.893,585.795l-35.1-20.166c-4.286-1.985-10.554-1.859-14.526.435l-32.576,18.807c-2.523,1.457-3.539,3.454-3.072,5.352l88.69,53,71.24,43.728,50.455-29.269Z" fill="#f3f3f3"/><path d="M1280.171,680.13V913.149a9.459,9.459,0,0,0,4.409-1.108,3.32,3.32,0,0,0,1.939-2.665l.007-.006v-225.7Z" fill="#fff"/><path d="M1343.954,653.444v-2.815h-.9l-.274,1.912Z" fill="#fff"/><path d="M1286.522,686.6v-2.884l-.867,1.224Z" fill="#fff"/><path d="M1275.177,686.345l-160.533-92.684c-9.444-5.453-9.444-14.325,0-19.777l32.575-18.808c9.444-5.452,24.811-5.452,34.255,0l160.533,92.684c2.6,1.5,2.6,3.93,0,5.429a10.393,10.393,0,0,1-9.4,0l-160.533-92.684a17.1,17.1,0,0,0-15.448,0l-32.576,18.808c-4.26,2.459-4.259,6.459,0,8.919l160.533,92.684c2.6,1.5,2.6,3.93,0,5.429A10.4,10.4,0,0,1,1275.177,686.345Z" fill="#fcfbfb"/><path d="M1233.34,793.192l-83.42-48.163V661.4l83.42,48.163Z" fill="#fff"/><path d="M1342.007,653.189a10.393,10.393,0,0,1-9.4,0l-160.533-92.684a17.1,17.1,0,0,0-15.448,0l-32.576,18.808c-2.789,1.61-3.739,3.879-2.876,5.946a6.47,6.47,0,0,1,2.876-2.973l32.576-18.808a17.093,17.093,0,0,1,15.448,0L1332.6,656.162a10.392,10.392,0,0,0,9.4,0c1.968-1.136,2.437-2.806,1.423-4.2A4.533,4.533,0,0,1,1342.007,653.189Z" fill="#fff"/><path d="M1284.58,686.345a10.4,10.4,0,0,1-9.4,0l-160.533-92.683c-4.068-2.348-6.373-5.332-6.936-8.4-.746,4.059,1.559,8.271,6.936,11.375l160.533,92.684a10.4,10.4,0,0,0,9.4,0c1.968-1.136,2.437-2.806,1.422-4.2A4.515,4.515,0,0,1,1284.58,686.345Z" fill="#fff"/></g><path d="M1590.139,415.026a20.629,20.629,0,0,0-3.316,2.429c-.458-14.918-11.233-20.851-24.494-13.195-10.8,6.235-19.949,19.584-23.228,32.668-2.667-.358-5.8.335-9.162,2.277-9.667,5.581-17.5,19.154-17.5,30.316s7.836,15.687,17.5,10.105l60.2-34.756c7.137-4.12,12.923-14.142,12.923-22.383S1597.276,410.906,1590.139,415.026Z" transform="translate(24.41 -51)" fill="#f7f7f7"/><path d="M1590.139,415.026a20.629,20.629,0,0,0-3.316,2.429c-.458-14.918-11.233-20.851-24.494-13.195-10.8,6.235-19.949,19.584-23.228,32.668-2.667-.358-5.8.335-9.162,2.277-9.667,5.581-17.5,19.154-17.5,30.316s7.836,15.687,17.5,10.105l60.2-34.756c7.137-4.12,12.923-14.142,12.923-22.383S1597.276,410.906,1590.139,415.026Z" transform="translate(28.41 -48)" fill="#fff"/><g transform="translate(26.41 -50)"><path d="M969.317,660.751a2.952,2.952,0,0,1-2.613-4.316c2.995-5.733,7.387-10.563,12.05-13.256a15.662,15.662,0,0,1,8.49-2.351c3.775.184,8.537-2.668,12.673-7.647a29.218,29.218,0,0,1,7.664-6.646,15.487,15.487,0,0,1,8.492-2.349c3.725.259,8.537-2.667,12.669-7.646a28.862,28.862,0,0,1,7.664-6.646,15.6,15.6,0,0,1,8.49-2.351c3.792.146,8.537-2.668,12.673-7.647a29.214,29.214,0,0,1,7.663-6.646c4.326-2.5,8.644-3.04,12.15-1.508a2.95,2.95,0,1,1-2.355,5.41c-1.751-.765-4.18-.332-6.844,1.208a23.246,23.246,0,0,0-6.074,5.3c-5.4,6.5-11.75,10.023-17.506,9.772a9.775,9.775,0,0,0-5.246,1.567,23.273,23.273,0,0,0-6.077,5.3c-5.393,6.5-11.835,10.017-17.5,9.772a9.688,9.688,0,0,0-5.246,1.564,23.27,23.27,0,0,0-6.075,5.306c-5.4,6.5-11.742,10.016-17.5,9.771a9.829,9.829,0,0,0-5.247,1.567,27.153,27.153,0,0,0-9.771,10.876A2.948,2.948,0,0,1,969.317,660.751Z" fill="#f7f7f7"/></g><g transform="translate(28.41 -48)"><path d="M969.317,660.751a2.952,2.952,0,0,1-2.613-4.316c2.995-5.733,7.387-10.563,12.05-13.256a15.662,15.662,0,0,1,8.49-2.351c3.775.184,8.537-2.668,12.673-7.647a29.218,29.218,0,0,1,7.664-6.646,15.487,15.487,0,0,1,8.492-2.349c3.725.259,8.537-2.667,12.669-7.646a28.862,28.862,0,0,1,7.664-6.646,15.6,15.6,0,0,1,8.49-2.351c3.792.146,8.537-2.668,12.673-7.647a29.214,29.214,0,0,1,7.663-6.646c4.326-2.5,8.644-3.04,12.15-1.508a2.95,2.95,0,1,1-2.355,5.41c-1.751-.765-4.18-.332-6.844,1.208a23.246,23.246,0,0,0-6.074,5.3c-5.4,6.5-11.75,10.023-17.506,9.772a9.775,9.775,0,0,0-5.246,1.567,23.273,23.273,0,0,0-6.077,5.3c-5.393,6.5-11.835,10.017-17.5,9.772a9.688,9.688,0,0,0-5.246,1.564,23.27,23.27,0,0,0-6.075,5.306c-5.4,6.5-11.742,10.016-17.5,9.771a9.829,9.829,0,0,0-5.247,1.567,27.153,27.153,0,0,0-9.771,10.876A2.948,2.948,0,0,1,969.317,660.751Z" fill="#fff"/></g><g transform="translate(26.41 -50)"><path d="M1576.079,537.012a12.543,12.543,0,0,1-5.676,9.83c-3.134,1.81-5.676.343-5.676-3.276a12.548,12.548,0,0,1,5.676-9.831C1573.538,531.925,1576.079,533.392,1576.079,537.012Z" fill="#f7f7f7"/><path d="M1594.477,526.39a12.543,12.543,0,0,1-5.676,9.83c-3.135,1.81-5.676.343-5.676-3.276a12.545,12.545,0,0,1,5.676-9.831C1591.936,521.3,1594.477,522.77,1594.477,526.39Z" fill="#f7f7f7"/><path d="M1612.875,515.768a12.546,12.546,0,0,1-5.676,9.831c-3.135,1.809-5.676.342-5.676-3.277a12.545,12.545,0,0,1,5.676-9.831C1610.334,510.681,1612.875,512.148,1612.875,515.768Z" fill="#f7f7f7"/><path d="M1631.273,505.146a12.546,12.546,0,0,1-5.676,9.83c-3.135,1.81-5.676.343-5.676-3.276a12.545,12.545,0,0,1,5.676-9.831C1628.731,500.059,1631.273,501.526,1631.273,505.146Z" fill="#f7f7f7"/></g><g transform="translate(28.41 -48)"><path d="M1576.079,537.012a12.543,12.543,0,0,1-5.676,9.83c-3.134,1.81-5.676.343-5.676-3.276a12.548,12.548,0,0,1,5.676-9.831C1573.538,531.925,1576.079,533.392,1576.079,537.012Z" fill="#fff"/><path d="M1594.477,526.39a12.543,12.543,0,0,1-5.676,9.83c-3.135,1.81-5.676.343-5.676-3.276a12.545,12.545,0,0,1,5.676-9.831C1591.936,521.3,1594.477,522.77,1594.477,526.39Z" fill="#fff"/><path d="M1612.875,515.768a12.546,12.546,0,0,1-5.676,9.831c-3.135,1.809-5.676.342-5.676-3.277a12.545,12.545,0,0,1,5.676-9.831C1610.334,510.681,1612.875,512.148,1612.875,515.768Z" fill="#fff"/><path d="M1631.273,505.146a12.546,12.546,0,0,1-5.676,9.83c-3.135,1.81-5.676.343-5.676-3.276a12.545,12.545,0,0,1,5.676-9.831C1628.731,500.059,1631.273,501.526,1631.273,505.146Z" fill="#fff"/></g><g transform="translate(26.41 -50)"><path d="M1446.017,337.171a12.548,12.548,0,0,1-5.676,9.831c-3.135,1.81-5.676.343-5.676-3.277a12.543,12.543,0,0,1,5.676-9.83C1443.475,332.085,1446.017,333.552,1446.017,337.171Z" fill="#f7f7f7"/><path d="M1461.674,328.131a12.545,12.545,0,0,1-5.676,9.831c-3.135,1.81-5.676.343-5.676-3.277a12.543,12.543,0,0,1,5.676-9.83C1459.133,323.045,1461.674,324.512,1461.674,328.131Z" fill="#f7f7f7"/><path d="M1446.017,319.092a12.547,12.547,0,0,1-5.676,9.831c-3.135,1.81-5.676.342-5.676-3.277a12.545,12.545,0,0,1,5.676-9.831C1443.475,314.005,1446.017,315.472,1446.017,319.092Z" fill="#f7f7f7"/><path d="M1461.674,310.052a12.546,12.546,0,0,1-5.676,9.831c-3.135,1.81-5.676.343-5.676-3.277a12.545,12.545,0,0,1,5.676-9.831C1459.133,304.965,1461.674,306.433,1461.674,310.052Z" fill="#f7f7f7"/></g><g transform="translate(28.41 -48)"><path d="M1446.017,337.171a12.548,12.548,0,0,1-5.676,9.831c-3.135,1.81-5.676.343-5.676-3.277a12.543,12.543,0,0,1,5.676-9.83C1443.475,332.085,1446.017,333.552,1446.017,337.171Z" fill="#fff"/><path d="M1461.674,328.131a12.545,12.545,0,0,1-5.676,9.831c-3.135,1.81-5.676.343-5.676-3.277a12.543,12.543,0,0,1,5.676-9.83C1459.133,323.045,1461.674,324.512,1461.674,328.131Z" fill="#fff"/><path d="M1446.017,319.092a12.547,12.547,0,0,1-5.676,9.831c-3.135,1.81-5.676.342-5.676-3.277a12.545,12.545,0,0,1,5.676-9.831C1443.475,314.005,1446.017,315.472,1446.017,319.092Z" fill="#fff"/><path d="M1461.674,310.052a12.546,12.546,0,0,1-5.676,9.831c-3.135,1.81-5.676.343-5.676-3.277a12.545,12.545,0,0,1,5.676-9.831C1459.133,304.965,1461.674,306.433,1461.674,310.052Z" fill="#fff"/></g><path d="M1185.41,419.46a21.706,21.706,0,0,0-5.545,4.765c-.261-10.933-8.1-15.3-17.766-9.723a32.323,32.323,0,0,0-8.538,7.45c-4.3-7.516-13.211-9.262-23.536-3.3-14.519,8.383-26.29,28.77-26.29,45.535a31.182,31.182,0,0,0,.264,3.919c-2.071-.536-4.61-.1-7.362,1.486-6.947,4.011-12.579,13.766-12.579,21.788s5.632,11.273,12.579,7.262l88.773-51.253c6.679-3.857,12.093-13.234,12.093-20.946S1192.089,415.6,1185.41,419.46Z" transform="translate(24.41 -52)" fill="#f7f7f7"/><path d="M1185.41,419.46a21.706,21.706,0,0,0-5.545,4.765c-.261-10.933-8.1-15.3-17.766-9.723a32.323,32.323,0,0,0-8.538,7.45c-4.3-7.516-13.211-9.262-23.536-3.3-14.519,8.383-26.29,28.77-26.29,45.535a31.182,31.182,0,0,0,.264,3.919c-2.071-.536-4.61-.1-7.362,1.486-6.947,4.011-12.579,13.766-12.579,21.788s5.632,11.273,12.579,7.262l88.773-51.253c6.679-3.857,12.093-13.234,12.093-20.946S1192.089,415.6,1185.41,419.46Z" transform="translate(28.41 -48)" fill="#fff"/><g transform="translate(28.41 -48)"><path d="M1351.113,533.437s-3.825-2.317-6.174,1.133-5.708,11.592-5.812,17.094,3.626,5.131,5.843,3.829,8.695-12.585,9.086-14.8-.462-5.2-1.086-5.785S1351.113,533.437,1351.113,533.437Z" transform="translate(4.598 12.341)" opacity="0.1"/><path d="M1351.113,533.437s-3.825-2.317-6.174,1.133-5.708,11.592-5.812,17.094,3.626,5.131,5.843,3.829,8.695-12.585,9.086-14.8-.462-5.2-1.086-5.785S1351.113,533.437,1351.113,533.437Z" transform="translate(-15.402 1.341)" opacity="0.1"/><path d="M1355.38,533.535s-5.187-2.616-8.372,1.279-7.739,13.089-7.88,19.3,4.917,5.794,7.923,4.323,11.789-14.21,12.32-16.706-.627-5.871-1.472-6.532S1355.38,533.535,1355.38,533.535Z" fill="#333"/><path d="M1356.512,532.285l.239,5.373a3.044,3.044,0,0,1-1.518,2.8,5.979,5.979,0,0,1-4,.622c-3.907-.628-4.256-1.744-4.535-7.117S1356.512,532.285,1356.512,532.285Z" fill="#d4ecff"/><path d="M1336.394,523.2s-5.187-2.615-8.372,1.279-7.739,13.089-7.88,19.3,4.917,5.794,7.923,4.323,11.789-14.21,12.32-16.706-.627-5.871-1.472-6.532S1336.394,523.2,1336.394,523.2Z" fill="#333"/><path d="M1337.525,521.953l.241,5.373a3.048,3.048,0,0,1-1.519,2.8,5.979,5.979,0,0,1-4,.622c-3.907-.628-4.256-1.745-4.535-7.117S1337.525,521.953,1337.525,521.953Z" fill="#d4ecff"/><path d="M1383.807,423.3c-1.535-24.978-27.051,3.675-27.051,3.675l-17.463,17.117-15.725,17.275a15.5,15.5,0,0,0-3.906,12.452l6.361,48.438a4.761,4.761,0,0,0,4.774,4.138,16.178,16.178,0,0,0,2.356-.207,5.917,5.917,0,0,0,5.256-6.279l-1.163-45.3,33.025-19.908S1385.341,448.275,1383.807,423.3Z"/><path d="M1402.792,432.814c-1.534-24.978-27.05,3.675-27.05,3.675l-17.463,17.116-15.725,17.275a15.5,15.5,0,0,0-3.906,12.453l6.361,48.438a4.761,4.761,0,0,0,4.774,4.138,16.318,16.318,0,0,0,2.356-.207,5.918,5.918,0,0,0,5.256-6.28l-1.129-44,32.991-21.211S1404.327,457.792,1402.792,432.814Z"/><path d="M1387.7,352.635c19.344,8.02,18.956,19.454,18.956,19.454s-3.789,41.921-2.5,69.918c.541,11.7-62.183,12.6-52.828-18.627,11.029-36.816,6.9-66.621,12.058-71.116S1382.694,350.56,1387.7,352.635Z" fill="#fff"/><path d="M1389.467,354.565c.021-1.106.056-2.425.158-4.031.419-6.558-9.683,1.228-9.683,1.228a9.566,9.566,0,0,1,.04,1.354c-2.7.687-4.782,2.342-5.384,4.68-1.012,3.928,2.493,8.226,7.83,9.6s10.481-.7,11.493-4.622C1394.7,359.757,1392.8,356.526,1389.467,354.565Z" fill="url(#c)"/><path d="M1385.729,368.749a14.2,14.2,0,0,1-3.532-.456,12.878,12.878,0,0,1-6.783-4.154,7.4,7.4,0,0,1-1.713-6.574c.841-3.26,4.147-5.507,8.424-5.723a.872.872,0,0,1,.97.875.921.921,0,0,1-.875.97c-3.452.177-6.094,1.88-6.726,4.339a5.594,5.594,0,0,0,1.354,4.943,11.727,11.727,0,0,0,12.6,3.247,5.591,5.591,0,0,0,3.574-3.672c.644-2.494-.879-5.283-3.883-7.106a.925.925,0,0,1,.961-1.58c3.716,2.256,5.565,5.847,4.715,9.147a7.4,7.4,0,0,1-4.675,4.928A11.882,11.882,0,0,1,1385.729,368.749Z" fill="#fff"/><path d="M1389.626,350.534s-1.662,6.081-9.853,8.414l.124-5.527Z" fill="#ea9c92"/><circle cx="14.89" cy="14.89" r="14.89" transform="translate(1364.973 324.478) rotate(-2.102)" fill="#ffc2b0"/><path d="M1383.819,339.358s-8.2,3.512-13.875,3.552-4.426-4.714-4.426-4.714l16.851-2.435Z" fill="#ea9c92"/><path d="M1368.252,340.283s7.141-3.032,13.406-1.767a6.562,6.562,0,0,1,3.786,2.249,2.234,2.234,0,0,0,1.146.829c1.111.252,2.93-4.357,5.089-4.462s3.6,1.424,1.83,4.258-1.173,6.007-.358,6.462,10.9-6.583,3.278-21.682-28.427-6.547-31.439-3.486c0,0-3.173,2.763-5.752.3C1359.238,322.988,1356.346,344.65,1368.252,340.283Z"/><path d="M1395.8,402.716v11.328a4.613,4.613,0,0,1-1.505,3.41l-23.27,21.215,2.644,4.044,32.059-21.021a6.246,6.246,0,0,0,2.544-4.4l2.193-21.021Z" fill="url(#d)"/><path d="M1405.016,366.425s7.06,10.617,9.69,38.563c0,0-12.06,3.9-18.9,1.686S1405.016,366.425,1405.016,366.425Z" fill="#fff"/><path d="M1394.514,379.849s-2.765,14.791-2.921,21.743a4.437,4.437,0,0,0,2.921,4.286h0Z" opacity="0.1"/><path d="M1357.659,528.448l1.548-41.2,9.092-10.252-13.928,8.125Z" opacity="0.1"/><path d="M1357.659,528.448l1.548-41.2,9.092-10.252-13.928,8.125Z" transform="translate(-20 -10)" opacity="0.1"/><path d="M1388.476,453.4l-5.143-.679-33.2-19.168a4.612,4.612,0,0,0-4.152.172L1322.455,447.3l-3.11-.41v3.1h0a1.212,1.212,0,0,0,.714,1.09l37.626,21.723a4.618,4.618,0,0,0,4.152-.172l25.62-14.787a1.675,1.675,0,0,0,1.016-1.4h0Z" fill="#333"/><path d="M1320.725,447.073l-1.38-.182v3.1h0a1.212,1.212,0,0,0,.714,1.09l.663.383Z" fill="#5793ce"/><path d="M1357.688,469.706l-37.626-21.723c-1.064-.614-.931-1.688.3-2.4l25.62-14.786a4.611,4.611,0,0,1,4.152-.172l37.625,21.723c1.065.614.931,1.688-.3,2.4l-25.62,14.787A4.618,4.618,0,0,1,1357.688,469.706Z" fill="#4d4d4d"/><path d="M1357.051,466.413l-31.285-18.062c-.885-.511-.774-1.4.248-1.994l13.729-7.72a3.838,3.838,0,0,1,3.453-.143l31.285,18.063c.885.511.774,1.4-.248,1.993l-13.729,7.72A3.838,3.838,0,0,1,1357.051,466.413Z" fill="#666"/><path d="M1347.435,430.086l-.389,2.6a19.188,19.188,0,0,0,.17,6.657l.463,2.287a3.215,3.215,0,0,0,2.577,2.527h0a1.774,1.774,0,0,0,2.082-1.548l.621-5.55s1.42,1.86,2.1,1.86-.767-5.558-2.317-8.7S1347.435,430.086,1347.435,430.086Z" fill="#ffc2b0"/><path d="M1360.189,388.825l-4.037,7.991a15.672,15.672,0,0,0-1.652,6.065l-1.753,27.331-5.312-.126-2.41-30.694a11.188,11.188,0,0,1,.137-2.837l2.754-15.564Z" fill="url(#e)"/><path d="M1356.413,471.792l-3.155-4.118-33.176-19.208a4.615,4.615,0,0,1-1.923-3.685l.029-27.162-1.908-2.49,1.793-1.038,0,0a1.211,1.211,0,0,1,1.3.075l37.6,21.769a4.613,4.613,0,0,1,1.923,3.684l-.032,29.581a1.674,1.674,0,0,1-.7,1.577h0Z" fill="#333"/><path d="M1333.47,456.217l-2.357-1.365-12.939-22.474.014-14.759-1.908-2.49,1.793-1.038,0,0a1.211,1.211,0,0,1,1.3.075l37.6,21.769a3.891,3.891,0,0,1,1.418,1.657Z" fill="#333"/><path d="M1317.127,416.234l-.847-1.105,1.793-1.038,0,0a1.211,1.211,0,0,1,1.3.075l.662.383Z" fill="#333"/><path d="M1357.316,436.177a4.82,4.82,0,0,1,1.571,3.167l-3.675,2.122-1.76-3.058Z" fill="#333"/><path d="M1355.184,436.974l-37.6-21.769c-1.064-.616-1.927.035-1.929,1.454l-.032,29.581a4.613,4.613,0,0,0,1.923,3.685l37.6,21.769c1.063.616,1.927-.036,1.929-1.455l.031-29.581A4.615,4.615,0,0,0,1355.184,436.974Z" fill="#1a1a1a"/><path d="M1373.671,442.713l-.6,1.248a8.361,8.361,0,0,1-3.143,3.484l-3.734,2.3a3.719,3.719,0,0,1-3.813.088l-.127-.077a2.247,2.247,0,0,1-.317-3.452l3.9-4.012s-2.192,1.68-2.807,1c-.45-.5,2.127-2.915,4.1-2.994a7.817,7.817,0,0,0,3.893-1.634Z" fill="#ffc2b0"/><path d="M1363.775,352.206s-14.307,15.567-20.079,29.848c0,0,4.893,8.814,16.868,12.273S1363.775,352.206,1363.775,352.206Z" fill="#fff"/><path d="M1357.87,393.4l2.319-22.4-5.464,20.988A31.437,31.437,0,0,0,1357.87,393.4Z" opacity="0.1"/><path d="M1374.491,349.064l-3.845-1.056s1.836,2.887,4.515,3.623,3.1-1.532,3.1-1.532Z" fill="#fff"/><path d="M1395.026,342.91a2.141,2.141,0,1,1-2.141-2.141A2.141,2.141,0,0,1,1395.026,342.91Z" fill="#fff"/></g><g transform="translate(28.41 -48)"><path d="M1554.209,639.881h0a.868.868,0,0,0-.932-.408l-11.982,2.6,4.719,8.028,8.1-9.205A.867.867,0,0,0,1554.209,639.881Z" fill="#fff"/><path d="M1549.484,645.8a5.992,5.992,0,0,0-2.748-4.673,1.962,1.962,0,0,0-1.8-.222,76.524,76.524,0,0,0-39.4,10.549l-.865.508,14.883,25.321,4.4-2.915a76.53,76.53,0,0,0,22.97-23.815l1.882-3.072A1.964,1.964,0,0,0,1549.484,645.8Z" fill="url(#f)"/><path d="M1522.543,670.539c-.052-6.621-4.763-14.637-10.524-17.9s-10.389-.546-10.337,6.075,4.763,14.638,10.524,17.9S1522.595,677.161,1522.543,670.539Z" fill="#fff"/><path d="M1431.222,732.316l88.332-55.031-14.883-25.32L1413.636,702.4Z" fill="#fff"/><path d="M1434.754,724.345c-.061-7.824-5.628-17.3-12.435-21.156s-12.276-.645-12.215,7.18,5.629,17.3,12.436,21.155S1434.815,732.169,1434.754,724.345Z" fill="#d4ecff"/><path d="M1429.715,727.307c-.061-7.825-5.628-17.3-12.435-21.156s-12.276-.645-12.215,7.18,5.629,17.3,12.436,21.155S1429.776,735.131,1429.715,727.307Z" fill="#d4ecff"/><path d="M1435.642,723.823c-.061-7.824-5.628-17.3-12.435-21.156-3.4-1.93-6.473-2.091-8.684-.791l-6.621,3.892,3.155,5.367a27.7,27.7,0,0,0,11.277,19.183l3.155,5.368,6.621-3.892h0C1434.321,730.494,1435.673,727.735,1435.642,723.823Z" fill="url(#g)"/><path d="M1429.021,727.715c-.061-7.825-5.629-17.3-12.436-21.156-3.046-1.727-5.819-2.028-7.954-1.142l-.034-.058L1291.736,774.05c-2.211,1.3-3.563,4.059-3.532,7.971.061,7.825,5.628,17.3,12.435,21.156,3.4,1.929,6.472,2.091,8.683.792h0l116.861-68.691-.034-.058C1427.962,733.787,1429.048,731.217,1429.021,727.715Z" fill="url(#h)"/><path d="M1308.442,793.5c-.269-4.618-4.03-10.371-8.4-12.849s-7.7-.743-7.427,3.875,4.031,10.372,8.4,12.85S1308.712,798.115,1308.442,793.5Z" fill="#67e995"/><path d="M1435.642,723.822c-.061-7.823-5.628-17.3-12.435-21.155-2.742-1.555-5.258-1.944-7.291-1.364,2.209-2.309,5.833-2.581,9.958-.243,6.807,3.86,12.375,13.332,12.436,21.155.036,4.674-1.908,7.685-4.923,8.544C1434.823,729.258,1435.666,726.906,1435.642,723.822Z" fill="#f8f8f8"/><path d="M1304.465,793.531a11.7,11.7,0,0,0-5.365-9.128c-2.937-1.665-5.3-.278-5.27,3.1a11.7,11.7,0,0,0,5.365,9.127C1302.132,798.293,1304.492,796.906,1304.465,793.531Z" fill="#ff2c9c"/><path d="M1304.465,793.531a11.7,11.7,0,0,0-5.365-9.128,3.721,3.721,0,0,0-3.746-.342l-24.77,14.56a7.487,7.487,0,1,0,7.588,12.908l24.769-14.559h0A3.719,3.719,0,0,0,1304.465,793.531Z" fill="url(#i)"/><path d="M1331.995,747.965l-3.713-2.107c-2.134-1.208-4.956-.907-7.945.85l-12.729,7.482a9.689,9.689,0,0,0-4.318,7.616l.05,6.371a5.234,5.234,0,0,1-1.281,3.2l.476,2.951-3.173-1.818.007,0a1.628,1.628,0,0,1-.757-1.55l-.05-6.371c-.045-5.811,3.994-12.934,9-15.879l12.728-7.482c4.252-2.5,8.266-2.928,11.3-1.209l3.713,2.107c2.133,1.209,4.955.908,7.946-.85l51.308-30.159a1.654,1.654,0,0,1,1.7-.165v0l3.167,1.814-2.711,1.043a5.241,5.241,0,0,1-2.108,2.8L1343.3,746.756C1339.043,749.256,1335.03,749.685,1331.995,747.965Z" fill="#5bd689"/><path d="M1331.5,747.7c-2.134-1.208-4.956-.907-7.946.851l-12.728,7.481a9.688,9.688,0,0,0-4.318,7.616l.049,6.371a5.248,5.248,0,0,1-2.342,4.131c-1.306.768-2.374.162-2.385-1.352l-.05-6.371c-.046-5.811,3.993-12.934,9-15.879l12.729-7.482c4.252-2.5,8.266-2.928,11.3-1.209l3.713,2.107c2.133,1.209,4.955.908,7.946-.85l51.308-30.159c1.305-.767,2.373-.161,2.385,1.353a5.25,5.25,0,0,1-2.343,4.132L1346.512,748.6c-4.254,2.5-8.267,2.929-11.3,1.209Z" fill="#67e995"/><path d="M1306.345,764.7l.05,6.371c0,.041-.019.087-.02.13a4.1,4.1,0,0,0,.179-1.181l-.049-6.371c0-.181.027-.371.042-.556A7.2,7.2,0,0,0,1306.345,764.7Z" fill="#fff"/></g></g></g></svg>