<?xml version="1.0" encoding="UTF-8"?>
<svg width="130px" height="34px" viewBox="0 0 130 34" version="1.1" xmlns="http://www.w3.org/2000/svg" xmlns:xlink="http://www.w3.org/1999/xlink">
    <!-- Generator: Sketch 53.2 (72643) - https://sketchapp.com -->
    <title>Group 3</title>
    <desc>Created with Sketch.</desc>
    <g id="Apex---A-FACE-iniative" stroke="none" stroke-width="1" fill="none" fill-rule="evenodd">
        <g id="home-" transform="translate(-103.000000, -15.000000)" fill-rule="nonzero">
            <g id="Group-3" transform="translate(103.000000, 15.000000)">
                <path d="M64.944,10.464 C64.944,12.4480099 64.5760037,14.1199932 63.84,15.48 C63.1039963,16.8400068 62.1120062,17.9359958 60.864,18.768 C59.6159938,19.6000042 58.1760082,20.2079981 56.544,20.592 C54.9119918,20.9760019 53.2160088,21.168 51.456,21.168 L47.376,21.168 L47.376,33.984 L39.168,33.984 L39.168,-2.66453526e-13 L51.648,-2.66453526e-13 C53.5040093,-2.59348099e-13 55.2399919,0.18399816 56.856,0.552 C58.4720081,0.92000184 59.879994,1.51199592 61.08,2.328 C62.280006,3.14400408 63.2239966,4.21599336 63.912,5.544 C64.6000034,6.87200664 64.944,8.51199024 64.944,10.464 Z M56.736,10.512 C56.736,9.711996 56.5760016,9.05600256 56.256,8.544 C55.9359984,8.03199744 55.5040027,7.63200144 54.96,7.344 C54.4159973,7.05599856 53.8000034,6.86400048 53.112,6.768 C52.4239966,6.67199952 51.7120037,6.624 50.976,6.624 L47.376,6.624 L47.376,14.64 L50.832,14.64 C51.6000038,14.64 52.3359965,14.5760006 53.04,14.448 C53.7440035,14.3199994 54.3759972,14.0960016 54.936,13.776 C55.4960028,13.4559984 55.9359984,13.0320026 56.256,12.504 C56.5760016,11.9759974 56.736,11.312004 56.736,10.512 Z M69.888,33.984 L69.888,-2.66453526e-13 L92.736,-2.66453526e-13 L92.736,6.96 L77.808,6.96 L77.808,13.344 L91.92,13.344 L91.92,19.92 L77.808,19.92 L77.808,26.976 L93.6,26.976 L93.6,33.984 L69.888,33.984 Z M119.52,33.984 L112.08,21.984 L104.928,33.984 L95.136,33.984 L107.04,16.032 L96.096,-2.66453526e-13 L105.984,-2.66453526e-13 L112.32,10.56 L118.56,-2.66453526e-13 L128.112,-2.66453526e-13 L117.36,16.032 L129.648,33.984 L119.52,33.984 Z" id="APEX" fill="#000000"></path>
                <polygon id="Path" fill="#000000" points="27.216 33.984 24.576 27.312 11.424 27.312 8.928 33.984 0 33.984 7.672 16.984 26.672 16.992 36.336 33.984"></polygon>
                <polygon id="Combined-Shape" fill="#F05136" points="17.172 -4.53859172e-13 8.672 14.984 25.672 14.984"></polygon>
            </g>
        </g>
    </g>
</svg>