<?xml version="1.0" encoding="UTF-8"?>
<svg width="162px" height="35px" viewBox="0 0 162 35" version="1.1" xmlns="http://www.w3.org/2000/svg" xmlns:xlink="http://www.w3.org/1999/xlink">
    <!-- Generator: Sketch 53.2 (72643) - https://sketchapp.com -->
    <title>logo_regular</title>
    <desc>Created with Sketch.</desc>
    <g id="Apex---A-FACE-iniative" stroke="none" stroke-width="1" fill="none" fill-rule="evenodd">
        <g id="About-Us---Hover" transform="translate(-103.000000, -15.000000)">
            <g id="logo_regular" transform="translate(103.000000, 15.000000)">
                <path d="M46.2857143,0.846774194 L68.6017052,0.846774194 L68.6017052,7.62096774 L53.6147555,7.62096774 L53.6147555,14.3951613 L67.4741604,14.3951613 L67.4741604,21.1693548 L53.6147555,21.1693548 L53.6147555,34.1532258 L46.2857143,34.1532258 L46.2857143,0.846774194 Z M82.226205,0.846774194 L88.2867583,0.846774194 L102.756917,34.1532258 L94.4882547,34.1532258 L91.6224117,27.0967742 L78.7026275,27.0967742 L75.9307465,34.1532258 L67.8500087,34.1532258 L82.226205,0.846774194 Z M85.045067,10.5376344 L81.0046981,20.8870968 L89.1324169,20.8870968 L85.045067,10.5376344 Z M127.844789,9.50268817 C127.124409,8.62454758 126.239609,7.95027117 125.19036,7.47983871 C124.141112,7.00940625 122.927447,6.77419355 121.54933,6.77419355 C120.171213,6.77419355 118.894908,7.04076794 117.720376,7.57392473 C116.545844,8.10708152 115.527932,8.85192174 114.666609,9.80846774 C113.805285,10.7650137 113.131897,11.9018751 112.646424,13.219086 C112.160951,14.5362969 111.918218,15.963254 111.918218,17.5 C111.918218,19.0681082 112.160951,20.5029057 112.646424,21.8044355 C113.131897,23.1059653 113.797455,24.2349863 114.643118,25.1915323 C115.488781,26.1480783 116.483203,26.8929185 117.626414,27.4260753 C118.769625,27.9592321 119.998949,28.2258065 121.314425,28.2258065 C122.817826,28.2258065 124.148941,27.9121895 125.307813,27.2849462 C126.466684,26.657703 127.421956,25.7795755 128.173656,24.6505376 L134.28119,29.2137097 C132.871752,31.189526 131.086491,32.6478448 128.925352,33.5887097 C126.764214,34.5295746 124.540467,35 122.254046,35 C119.654415,35 117.258407,34.592298 115.065947,33.7768817 C112.873488,32.9614655 110.978606,31.7932424 109.381242,30.2721774 C107.783879,28.7511125 106.538894,26.908613 105.64625,24.7446237 C104.753606,22.5806343 104.307291,20.1657839 104.307291,17.5 C104.307291,14.8342161 104.753606,12.4193657 105.64625,10.2553763 C106.538894,8.09138703 107.783879,6.24888753 109.381242,4.72782258 C110.978606,3.20675763 112.873488,2.03853454 115.065947,1.22311828 C117.258407,0.407702016 119.654415,0 122.254046,0 C123.193671,0 124.172433,0.0862446573 125.19036,0.258736559 C126.208288,0.431228461 127.21054,0.70564328 128.197146,1.08198925 C129.183753,1.45833522 130.131194,1.96012231 131.039499,2.58736559 C131.947803,3.21460887 132.762133,3.98297036 133.482513,4.89247312 L127.844789,9.50268817 Z M138.556464,0.846774194 L161.154341,0.846774194 L161.154341,7.62096774 L145.885505,7.62096774 L145.885505,13.8306452 L160.308683,13.8306452 L160.308683,20.6048387 L145.885505,20.6048387 L145.885505,27.3790323 L162,27.3790323 L162,34.1532258 L138.556464,34.1532258 L138.556464,0.846774194 Z" id="FACE" fill="#000000"></path>
                <g id="Group-2" fill="#F05136" fill-rule="nonzero">
                    <path d="M14.6759582,0 L22.0139373,0 L22.0139373,7.33870968 L14.6759582,7.33870968 L14.6759582,14.6774194 L7.33797909,14.6774194 L7.33797909,22.016129 L0,22.016129 L0,14.6774194 L0,7.33870968 L0,0 L7.33797909,0 L14.6759582,0 Z" id="Combined-Shape"></path>
                    <path d="M34.9965157,27.6612903 L34.9965157,35 L27.6585366,35 L20.3205575,35 L12.9825784,35 L5.6445993,35 L5.6445993,27.6612903 L12.9825784,27.6612903 L12.9825784,20.3225806 L20.3205575,20.3225806 L20.3205575,12.983871 L27.6585366,12.983871 L27.6585366,5.64516129 L34.9965157,5.64516129 L34.9965157,12.983871 L34.9965157,20.3225806 L34.9965157,27.6612903 Z" id="Combined-Shape"></path>
                </g>
            </g>
        </g>
    </g>
</svg>